<?xml version="1.0" encoding="UTF-8"?>
<svg id="Layer_2" data-name="Layer 2" xmlns="http://www.w3.org/2000/svg" viewBox="211 561 1461 764">
  <defs>
    <style>
      .cls-1 {
        fill: #191919;
      }

      .cls-2 {
        fill: #b58440;
      }
    </style>
  </defs>
  <g>
    <path class="cls-2" d="M1102.4,762.45s-226.95,10.03-302.27,326.33h-148.38s61.15-159.9,184.47-244.87c123.31-84.97,235.28-80.19,266.17-81.46Z"/>
    <path class="cls-1" d="M1138.65,591.01h-361.96l-25.92,105.02h373.28c22,0,38.16,20.64,32.89,41.99l-1.11,4.49c-1.97,7.98-6.29,14.87-12.12,20.03-.07.06-.1.09-.17.15-7.17,6.14-17,8.58-20.81,9.33-2.81.56-5.62,1.12-8.41,1.75-50.8,11.37-84.33,31.66-89.14,34.56-22.36,14.23-43.73,29.9-65.04,56.42l133.67,224.02h151.3l-132.73-211.28h3.72c68.85,0,128.82-46.97,145.31-113.81l2.99-12.1c20.15-81.66-41.65-160.57-125.76-160.57Z"/>
  </g>
  <g>
    <path class="cls-1" d="M297.18,1193.35h97.4c15.61,0,23.18,5.82,22.72,17.46-.09,2.22-.46,4.62-1.12,7.21l-3.79,15.1c-3.93,15.33-14.05,23.51-30.35,24.52l20.05,35.88-.18,1.11h-31.87l-20.42-36.85h-40.04l-9.22,36.85h-28.68l25.5-101.28ZM386.63,1222.45c.11-.46.2-.9.26-1.32.06-.42.1-.85.12-1.32.15-3.79-2.18-5.68-6.98-5.68h-59.44l-6.42,25.49h59.44c5.91,0,9.53-2.77,10.86-8.31l2.15-8.87Z"/>
    <path class="cls-1" d="M462.17,1294.63h-28.68l25.5-101.28h28.68l-25.5,101.28Z"/>
    <path class="cls-1" d="M527.02,1193.35h98.23c15.61,0,23.18,5.82,22.72,17.46-.09,2.22-.46,4.62-1.12,7.21l-13.15,51.95c-4.07,16.44-15.39,24.66-33.95,24.66h-98.23l25.5-101.28ZM616.88,1222.72c.11-.46.2-.88.26-1.25.06-.37.1-.74.11-1.11.15-3.88-2.22-5.82-7.11-5.82h-59.85l-14.81,58.88h59.85c5.73,0,9.35-2.77,10.86-8.31l10.69-42.39Z"/>
    <path class="cls-1" d="M710.94,1229.79h70.8l-4.6,18.01h-70.8l-6.42,25.63h90.75l-5.28,21.2h-119.43l25.5-101.28h119.43l-5.42,21.2h-90.75l-3.79,15.24Z"/>
    <path class="cls-2" d="M922.15,1273.43h32c5.26,0,8.55-2.49,9.86-7.48l18.4-72.6h28.26l-20.06,79.39c-3.63,14.59-13.85,21.89-30.66,21.89h-113.61c-14.13,0-20.99-5.22-20.57-15.66.04-1.01.13-2.03.26-3.05.13-1.02.36-2.08.68-3.19l20.06-79.39h28.26l-18.4,72.6c-.11.46-.2.85-.25,1.18-.06.32-.1.67-.11,1.04-.14,3.51,2.01,5.27,6.44,5.27h32.42l20.22-80.08h27.02l-20.22,80.08Z"/>
    <path class="cls-2" d="M1050.99,1294.63c-15.61,0-23.18-5.82-22.72-17.46.08-2.12.46-4.52,1.12-7.21l13.15-51.95c4.07-16.44,15.39-24.66,33.95-24.66h70.24c15.61,0,23.18,5.82,22.72,17.46-.09,2.22-.46,4.62-1.12,7.21l-13.15,51.95c-4.07,16.44-15.39,24.66-33.95,24.66h-70.24ZM1080.77,1214.55c-5.82,0-9.39,2.73-10.71,8.17l-10.69,42.39c-.2.46-.31.9-.33,1.32-.02.42-.03.86-.05,1.32-.15,3.79,2.17,5.68,6.98,5.68h50.85c5.73,0,9.34-2.77,10.86-8.31l10.69-42.39c.11-.46.19-.88.26-1.25.06-.37.1-.78.12-1.25.15-3.79-2.22-5.68-7.12-5.68h-50.85Z"/>
    <path class="cls-2" d="M1213.09,1193.35h97.4c15.61,0,23.18,5.82,22.72,17.46-.09,2.22-.46,4.62-1.12,7.21l-3.79,15.1c-3.94,15.33-14.05,23.51-30.35,24.52l20.05,35.88-.18,1.11h-31.87l-20.43-36.85h-40.04l-9.22,36.85h-28.68l25.5-101.28ZM1302.54,1222.45c.11-.46.2-.9.26-1.32.06-.42.1-.85.12-1.32.15-3.79-2.18-5.68-6.98-5.68h-59.44l-6.42,25.49h59.44c5.91,0,9.53-2.77,10.86-8.31l2.15-8.87Z"/>
    <path class="cls-2" d="M1446.66,1242.4l34.68,51.12-.18,1.11h-32.14l-30.56-43.23h-29.51l-10.86,43.23h-28.68l25.5-101.28h28.68l-10.18,40.04h29.65l49.67-40.04h30.9l-.32,1.11-56.63,47.94Z"/>
    <path class="cls-2" d="M1618.4,1229.79c15.79,0,23.46,5.82,23,17.46-.09,2.22-.46,4.62-1.12,7.2l-3.94,15.52c-2.18,8.31-6.05,14.5-11.61,18.57-5.57,4.07-13.1,6.1-22.62,6.1h-91.58l5.28-21.2h82.16c6,0,9.76-2.77,11.28-8.31l2.3-9c.11-.46.2-.88.26-1.25.06-.37.1-.74.11-1.11.16-3.97-2.35-5.96-7.52-5.96h-56.39c-14.69,0-21.82-5.17-21.41-15.52.04-1.01.13-2.03.26-3.05.13-1.02.36-2.08.68-3.19l2.79-10.95c3.62-14.5,14.12-21.75,31.48-21.75h90.05l-5.41,21.2h-80.77c-4.62,0-7.37,1.76-8.25,5.26l-1.15,4.57c-.11.37-.17.83-.19,1.39-.11,2.68,1.83,4.02,5.8,4.02h56.53Z"/>
  </g>
</svg>